<svg id="Camada_1" data-name="Camada 1" xmlns="http://www.w3.org/2000/svg" viewBox="0 0 170 170"><defs><style>.cls-1{fill:#ff6450;}.cls-2{fill:#fff;}</style></defs><circle class="cls-1" cx="85.01" cy="84.98" r="84.98"/><path class="cls-2" d="M131.35,68.15c-1.42,0-2.89-1.06-4.39-3.17a30.18,30.18,0,0,1-3.72-7.72,30.59,30.59,0,0,1-1.67-8.41c-.08-3.14.74-5,2.44-5.6s3.49.45,5.32,3A30.42,30.42,0,0,1,133.05,54a30.6,30.6,0,0,1,1.67,8.4c.08,3.15-.74,5-2.44,5.6A2.76,2.76,0,0,1,131.35,68.15Zm-6.17-21.4c-.34,1.2-.27,4.59,1.34,9.42s3.6,7.58,4.59,8.33c.34-1.2.27-4.59-1.34-9.42h0C128.16,50.25,126.17,47.5,125.18,46.75Z"/><path class="cls-2" d="M130.9,68.06a1.52,1.52,0,0,1-.42-.06h0c-.12,0-11.88-2.92-22-1.33a5,5,0,0,1-3.07-9.48c3.72-1.9,12.89-7,17.53-13.34a1.74,1.74,0,0,1,2.42-.37,1.72,1.72,0,0,1,.37,2.41C120.8,52.6,111.85,57.78,107,60.27a1.59,1.59,0,0,0-.81,1.88,1.62,1.62,0,0,0,1.78,1.11c10.85-1.7,22.89,1.26,23.4,1.39a1.73,1.73,0,0,1,1.26,2.1A1.75,1.75,0,0,1,130.9,68.06Z"/><path class="cls-2" d="M118.07,75a1.63,1.63,0,0,1-.53-.08c-6.77-2.18-9.28-9.31-9.38-9.61a1.73,1.73,0,1,1,3.27-1.12c0,.09,2.09,5.81,7.17,7.44a1.73,1.73,0,0,1-.53,3.37Z"/><path class="cls-2" d="M140.81,52.55a1.73,1.73,0,0,1-.56-3.36l5.59-1.94A1.73,1.73,0,0,1,147,50.52l-5.59,1.94A1.88,1.88,0,0,1,140.81,52.55Z"/><path class="cls-2" d="M136,45.07a1.71,1.71,0,0,1-1-.3,1.73,1.73,0,0,1-.46-2.4l3.34-4.9a1.73,1.73,0,1,1,2.85,2l-3.33,4.89A1.74,1.74,0,0,1,136,45.07Z"/><path class="cls-2" d="M146.38,62.87a1.23,1.23,0,0,1-.27,0l-5.85-.91a1.73,1.73,0,1,1,.54-3.42l5.85.92a1.73,1.73,0,0,1-.27,3.43Z"/><path class="cls-2" d="M70.56,76.65a11.3,11.3,0,1,0,11.29-11.3A11.31,11.31,0,0,0,70.56,76.65ZM81.85,84.3a7.66,7.66,0,1,1,7.66-7.65A7.66,7.66,0,0,1,81.85,84.3Z"/><path class="cls-2" d="M125.56,73.11V99.93a1.82,1.82,0,0,1-2.83,1.51L106,90.15l-.18-.27h-.22a10.49,10.49,0,0,0-10.9.17l-16,10.75a1.82,1.82,0,0,1-2.28-.21L61.66,86.31c-3.37-3.25-9.94-3.26-13.22-.06L28.65,103.5a1.82,1.82,0,0,1-3-1.37V58a5.43,5.43,0,0,1,5.43-5.42h74.26a1.83,1.83,0,0,0,1.82-1.82h0a1.83,1.83,0,0,0-1.82-1.82H31.06A9.07,9.07,0,0,0,22,58v51.64a1.77,1.77,0,0,0,0,1.2v7.42a9.06,9.06,0,0,0,9.06,9.06h89.09a9.06,9.06,0,0,0,9.06-9.07V73.11a1.82,1.82,0,0,0-1.82-1.82h0A1.83,1.83,0,0,0,125.56,73.11Zm-5.42,50.54H100.86a1.8,1.8,0,0,1-1.26-.51L81.71,105.78A1.82,1.82,0,0,1,82,103l14.72-9.89a6.84,6.84,0,0,1,7.09,0l21,14.12a1.83,1.83,0,0,1,.8,1.51v9.53A5.42,5.42,0,0,1,120.14,123.65Zm-61-34.72,32.55,31.6a1.82,1.82,0,0,1-1.27,3.12H31.06a5.43,5.43,0,0,1-5.43-5.42v-6.45a1.82,1.82,0,0,1,.62-1.37L50.91,88.93A6.53,6.53,0,0,1,59.13,88.93Z"/></svg>