<svg id="Camada_1" data-name="Camada 1" xmlns="http://www.w3.org/2000/svg" viewBox="0 0 170 170"><defs><style>.cls-1{fill:#ff6450;}.cls-2{fill:#fff;}</style></defs><circle class="cls-1" cx="84.98" cy="84.98" r="84.98"/><path class="cls-2" d="M71.88,122a5,5,0,0,1-2.19-.51,5,5,0,0,1-2.53-2.82c0-.12-.08-.21-.11-.29l-6.53-21a2,2,0,0,1,3.82-1.19l6.52,20.92,0,.12a1.09,1.09,0,0,0,.54.63,1,1,0,0,0,.77.05l76.06-25.72a1.17,1.17,0,0,0,.63-.55,1.22,1.22,0,0,0,.11-.93l0-.13L134.13,42.9a1.62,1.62,0,0,0-.8-1,1.46,1.46,0,0,0-1.14-.08L57.05,67.27a1.74,1.74,0,0,0-1,2.16l4.12,13.22a2,2,0,0,1-3.82,1.19L52.19,70.62a5.76,5.76,0,0,1,3.58-7.14l75.14-25.42a5.44,5.44,0,0,1,4.24.31,5.59,5.59,0,0,1,2.8,3.35l14.87,47.73s0,.14.06.26a5.23,5.23,0,0,1-.45,3.8A5.09,5.09,0,0,1,149.55,96L73.49,121.69A5,5,0,0,1,71.88,122Zm-1-4.8h0Zm-.15-.32Zm0,0h0Z"/><path class="cls-2" d="M71.88,122a5,5,0,0,1-2.19-.51,5,5,0,0,1-2.57-2.94,2,2,0,0,1,.2-1.71L82.08,93.42a2,2,0,1,1,3.38,2.14L71.4,117.83l0,0a1,1,0,0,0,.77.05l76.06-25.72a1.17,1.17,0,0,0,.63-.55.77.77,0,0,0,.07-.16l-22.8-9.91a2,2,0,0,1,1.59-3.67l24,10.42a2,2,0,0,1,1.12,1.28,5.24,5.24,0,0,1-.42,3.92A5.09,5.09,0,0,1,149.55,96L73.49,121.69A5,5,0,0,1,71.88,122Z"/><path class="cls-2" d="M107.44,97.73a2.1,2.1,0,0,1-.73-.14L55,77.12a2,2,0,0,1-1.18-1.26l-1.63-5.24h0a5.76,5.76,0,0,1,3.58-7.14l75.14-25.42a5.44,5.44,0,0,1,4.24.31,5.59,5.59,0,0,1,2.8,3.35L139.59,47a2,2,0,0,1-.22,1.65L109.14,96.79A2,2,0,0,1,107.44,97.73Zm-50.08-24,49.27,19.51,28.86-46-1.36-4.38a1.62,1.62,0,0,0-.8-1,1.46,1.46,0,0,0-1.14-.08L57.05,67.27a1.73,1.73,0,0,0-1,2.16Z"/><path class="cls-2" d="M24.8,94.28a2,2,0,0,1-.67-3.89l22-7.81a2,2,0,0,1,1.34,3.77l-22,7.81A2,2,0,0,1,24.8,94.28Z"/><path class="cls-2" d="M18.9,120.82a2,2,0,0,1-.67-3.89l27.29-9.7A2,2,0,1,1,46.86,111l-27.29,9.7A1.93,1.93,0,0,1,18.9,120.82Z"/><path class="cls-2" d="M54.37,108.22a2,2,0,0,1-.67-3.89l2.4-.85a2,2,0,1,1,1.34,3.76l-2.4.86A1.93,1.93,0,0,1,54.37,108.22Z"/><path class="cls-2" d="M22.82,106.53a2,2,0,0,1-.67-3.89L59.66,89.31A2,2,0,0,1,61,93.08L23.48,106.41A1.92,1.92,0,0,1,22.82,106.53Z"/></svg>