<svg id="Camada_1" data-name="Camada 1" xmlns="http://www.w3.org/2000/svg" viewBox="0 0 170 170"><defs><style>.cls-1{fill:#ff6450;}.cls-2{fill:#fff;}</style></defs><circle class="cls-1" cx="85.02" cy="84.99" r="84.98"/><path class="cls-2" d="M91.63,129.86l.79-.13c.7-.11,1.4-.24,2.09-.39s1.31-.29,2-.46l.64-.17c.78-.22,1.56-.46,2.33-.71l.17-.06a44.82,44.82,0,0,0,5.46-2.26l.25-.12q.77-.39,1.53-.81l.82-.46c.31-.18.61-.35.91-.54l1.37-.86.32-.22a44.84,44.84,0,0,0,8-6.86l.11-.12c.44-.48.87-1,1.29-1.46l.24-.29.3-.37c.19-.23.38-.46.56-.7.06-.07.11-.15.17-.23l0,0,.12-.16.11-.13.56-.76.24-.34A44.76,44.76,0,0,0,128,99.62c0-.13.08-.25.13-.38.16-.5.33-1,.48-1.53.1-.35.19-.69.28-1s.16-.59.23-.88q.21-.87.39-1.74c0-.07,0-.15.05-.22A45.09,45.09,0,0,0,130,79.39a1.1,1.1,0,0,1,0-.18c0-.25-.07-.49-.11-.74s0-.35-.07-.52-.07-.39-.1-.59-.11-.58-.16-.87-.11-.58-.17-.87c0-.11-.05-.22-.07-.33l-.24-1c-.08-.3-.15-.6-.23-.89l0-.14,0-.09c-.09-.36-.2-.72-.31-1.08l-.24-.81-.1-.31c-.11-.35-.24-.7-.36-1l-.23-.65c-.06-.18-.13-.37-.2-.55l-.27-.66c-.21-.53-.43-1.06-.66-1.58l-.06-.12a44.72,44.72,0,0,0-10.51-14.63l-.13-.12c-.48-.44-1-.86-1.46-1.28l-.31-.26c-.44-.36-.89-.72-1.35-1.07l-.47-.35-.5-.38,0,0-.73-.5-.55-.37-.32-.22-.32-.22-.69-.42-.41-.26-.16-.09-.4-.25-.31-.19-.75-.4-.14-.08-.42-.23c-.47-.25-1-.5-1.42-.73l-.59-.29c-.48-.22-1-.44-1.44-.64l-.56-.24c-.52-.22-1-.43-1.57-.62l-.42-.16c-.59-.21-1.19-.41-1.79-.6l-.21-.07a44.78,44.78,0,0,0-17.83-1.79l-.24,0-.9.11h-.11l-.57.08-.83.12-.52.09-.69.13c-.38.07-.75.13-1.12.21l-.27.06-.85.2-1.11.28h-.07l-.1,0-.92.27-1,.3-.26.09-.89.31-.84.29-.52.19-.6.25-.51.2-.28.12-.85.37-.06,0a44.81,44.81,0,0,0-11.31,7.25l-.21.19c-.43.38-.85.77-1.26,1.16l-.69.68-.72.73c-.38.4-.75.81-1.12,1.22l-.24.26a45.18,45.18,0,0,0-7.08,11l-.18.39c-.13.28-.25.57-.37.86l-.06.14c0,.06,0,.12-.08.19-.15.38-.31.75-.46,1.14l-.16.45-.12.33c-.23.62-.44,1.25-.64,1.88,0,0,0,.08,0,.12A44.57,44.57,0,0,0,39.75,82c0,.11,0,.22,0,.33q0,.84-.06,1.68c0,.33,0,.66,0,1s0,.67,0,1q0,.84.06,1.68c0,.11,0,.22,0,.33a44.93,44.93,0,0,0,2,10.44l0,.06c.2.65.42,1.29.66,1.94l0,.13.06.15h0c.06.15.12.31.17.46l.46,1.14.12.29h0c.12.3.25.6.38.89l.18.39a44.92,44.92,0,0,0,7.09,11l.22.24c.37.42.75.83,1.13,1.24.23.24.47.48.71.71s.46.47.7.7c.41.39.83.77,1.25,1.14l.23.21a44.75,44.75,0,0,0,12.23,7.65l.1,0,.77.31,1,.4.59.21,1.19.41.22.07.91.27A43.46,43.46,0,0,0,78,129.79l.17,0q1.06.17,2.13.27l.21,0a43.72,43.72,0,0,0,4.44.25h.14c1.41,0,2.81-.09,4.21-.22l.47,0C90.39,130,91,130,91.63,129.86Zm14.7-9.72-.85.49-.66.38-.08,0A41.48,41.48,0,0,1,88.8,125.9a55.18,55.18,0,0,0,16.7-29.14l.19-.18-.13-.13a58,58,0,0,0,1-16.25c5.68,6.38,10.69,15.32,12.6,27.69a41.41,41.41,0,0,1-12.73,12.2Zm-.94-47.26-.17.05a58,58,0,0,0-13.75-9.07c8.36-1.72,18.65-1.57,30.46,3A41.55,41.55,0,0,1,126.12,84v.15c0,.29,0,.57,0,.85s0,.57,0,.85V86a41.48,41.48,0,0,1-3.77,16.19,55.19,55.19,0,0,0-16.89-29C105.42,73,105.4,72.9,105.39,72.88ZM82.25,126a41.51,41.51,0,0,1-16.9-4.92l-.16-.09-.64-.37-.83-.47-.1-.07a41.35,41.35,0,0,1-12.14-11.35,57.83,57.83,0,0,0,16.79,2.55,54,54,0,0,0,16.79-2.68l.25.07,0-.16a57.6,57.6,0,0,0,14.74-7.39C97.4,109.23,92.13,118.06,82.25,126Zm5.54-82a41.48,41.48,0,0,1,17.26,5.12l.6.34,1.31.8c.32.2.63.39.94.6l.62.43c.9.64,1.79,1.3,2.64,2h0a41.8,41.8,0,0,1,5.53,5.52l.07.09c.41.49.8,1,1.18,1.49l.11.15.51.73A55.2,55.2,0,0,0,85,61.36l-.25-.07,0,.17A58.11,58.11,0,0,0,70,68.84C72.64,60.74,77.92,51.9,87.79,44ZM68.39,94.58a49.76,49.76,0,0,1-.15-19,49.39,49.39,0,0,1,16.56-9.8,51.05,51.05,0,0,1,16.85,9.66,49.91,49.91,0,0,1,.16,19,49.76,49.76,0,0,1-16.57,9.8A51.05,51.05,0,0,1,68.39,94.58Zm11-50.32.7-.09c.39-.05.78-.08,1.17-.11A55.2,55.2,0,0,0,64.54,73.21l-.18.18.12.12a57.64,57.64,0,0,0-1,16.26c-5.69-6.39-10.7-15.33-12.61-27.7A41.47,41.47,0,0,1,63.6,49.9l.21-.13c.39-.24.8-.47,1.2-.69s.85-.46,1.27-.68.56-.3.84-.43c.69-.33,1.37-.64,2.07-.94l.77-.3,1.46-.55.28-.09.63-.22c.58-.18,1.16-.36,1.74-.52l.38-.11q1.23-.32,2.46-.57h0l.44-.08.64-.11Zm-34,51.53s0-.08,0-.13l-.08-.32c-.13-.49-.25-1-.35-1.47a.83.83,0,0,1,0-.15c-.05-.24-.09-.48-.14-.71s-.11-.54-.16-.81,0-.3-.08-.45c-.07-.42-.13-.84-.18-1.27,0-.23-.07-.46-.09-.7-.06-.46-.1-.91-.14-1.37,0-.2,0-.4,0-.6,0-.5-.06-1-.08-1.5,0-.14,0-.28,0-.43q0-.85,0-1.71V84a41.63,41.63,0,0,1,3.77-16.25,55.19,55.19,0,0,0,16.89,29c0,.14.07.24.07.25l.17,0a57.47,57.47,0,0,0,13.76,9.07c-8.37,1.73-18.66,1.58-30.47-3l-.33-.68c-.17-.36-.33-.72-.49-1.08l-.35-.83c-.14-.34-.27-.68-.4-1s-.15-.41-.22-.62l-.27-.77c-.06-.16-.12-.33-.17-.5s-.07-.23-.11-.35Q45.54,96.51,45.35,95.79Z"/></svg>