<svg id="Camada_1" data-name="Camada 1" xmlns="http://www.w3.org/2000/svg" viewBox="0 0 170 170"><defs><style>.cls-1{fill:#ff6450;}.cls-2{fill:#fff;}</style></defs><circle class="cls-1" cx="85.02" cy="85.17" r="84.98"/><path class="cls-2" d="M136,41.48H88.79v-1a3.78,3.78,0,0,0-7.56,0v1H34.08a1.38,1.38,0,0,0-1.39,1.38v4.78A1.38,1.38,0,0,0,34.08,49H36V97.71a8.35,8.35,0,0,0,8.54,8.53H65.41l-9.14,25.53a1.35,1.35,0,0,0,.17,1.26,1.38,1.38,0,0,0,1.13.59H62.5a1.38,1.38,0,0,0,1.31-.91l4.39-12.16h33.65l4.39,12.16a1.37,1.37,0,0,0,1.3.91h4.93a1.4,1.4,0,0,0,1.13-.58,1.37,1.37,0,0,0,.17-1.27l-9.14-25.53h20.92a8.35,8.35,0,0,0,8.54-8.53V49H136a1.38,1.38,0,0,0,1.38-1.38V42.86A1.38,1.38,0,0,0,136,41.48ZM70.41,106.24l-8.88,24.61h-2l8.82-24.61Zm30.44,11.54H69.2l.72-2h30.2ZM70.92,113l2.44-6.77H96.68L99.12,113Zm39.58,17.84h-2l-4.31-11.93a1.4,1.4,0,0,0-.16-.46l-4.41-12.22h2.05ZM131.31,49V97.71a5.64,5.64,0,0,1-5.76,5.76H44.49a5.64,5.64,0,0,1-5.76-5.76V49ZM84,41.48v-1a1,1,0,0,1,2,0v1Zm50.56,2.77v2H35.47v-2Z"/><path class="cls-2" d="M132.39,95.61l-1.71,0a.34.34,0,0,1-.33-.34l0-3.45a1.38,1.38,0,0,0-1.11-1.37,17.64,17.64,0,0,1-5.71-2.27,1.39,1.39,0,0,0-1.7.2l-2.35,2.32a.34.34,0,0,1-.47,0l-3.35-3.39a.36.36,0,0,1-.1-.25.29.29,0,0,1,.09-.22l2.26-2.22a1.39,1.39,0,0,0,.19-1.75A17.28,17.28,0,0,1,115.69,77a1.38,1.38,0,0,0-1.35-1.1h-3.08a.36.36,0,0,1-.35-.34l0-4.78a.31.31,0,0,1,.09-.22.26.26,0,0,1,.24-.1l3.11,0a1.39,1.39,0,0,0,1.35-1.08,17.15,17.15,0,0,1,2.5-5.79,1.39,1.39,0,0,0-.16-1.75l-2.23-2.24a.36.36,0,0,1,0-.49l3.38-3.33a.3.3,0,0,1,.47,0L122,58.17a1.39,1.39,0,0,0,1.7.21,17.65,17.65,0,0,1,5.73-2.19,1.39,1.39,0,0,0,1.13-1.35l0-3.48a.31.31,0,0,1,.09-.22.46.46,0,0,1,.24-.09h1.72a1.39,1.39,0,0,0,0-2.78H131a3.27,3.27,0,0,0-2.19.9,3,3,0,0,0-.93,2.18v2.36a20.62,20.62,0,0,0-4.57,1.75l-1.58-1.59a3.07,3.07,0,0,0-2.2-.93,3.12,3.12,0,0,0-2.2.9l-3.39,3.35a3.13,3.13,0,0,0,0,4.4l1.45,1.46a20.12,20.12,0,0,0-2,4.67h-2a3.26,3.26,0,0,0-2.2.89,3.09,3.09,0,0,0-.92,2.19l0,4.78a3.14,3.14,0,0,0,3.1,3.12h2a20.25,20.25,0,0,0,2,4.69l-1.47,1.45a3,3,0,0,0-.92,2.19,3.11,3.11,0,0,0,.89,2.21l3.36,3.39a3.1,3.1,0,0,0,4.39,0l1.6-1.57a20.89,20.89,0,0,0,4.54,1.81l0,2.35a3.15,3.15,0,0,0,3.09,3.13h1.72a1.39,1.39,0,1,0,0-2.77Zm0,2.23Z"/><path class="cls-2" d="M132.71,64.64A.85.85,0,1,0,132.6,63a10.4,10.4,0,0,0-.12,20.75h.06a.86.86,0,0,0,.85-.79.84.84,0,0,0-.78-.91,8.7,8.7,0,0,1,.1-17.37Z"/><path class="cls-2" d="M74.83,76.18H60.4V61.75A1.39,1.39,0,0,0,59,60.36,17.21,17.21,0,1,0,76.22,77.57,1.39,1.39,0,0,0,74.83,76.18Zm-17.2-13V77.57A1.38,1.38,0,0,0,59,79H73.38A14.43,14.43,0,1,1,57.63,63.2Z"/><path class="cls-2" d="M64.36,55.28A1.39,1.39,0,0,0,63,56.67V72.49a1.38,1.38,0,0,0,1.39,1.38H80.18a1.38,1.38,0,0,0,1.38-1.38A17.22,17.22,0,0,0,64.36,55.28ZM78.72,71.1h-13v-13A14.4,14.4,0,0,1,78.72,71.1Z"/><path class="cls-2" d="M103,94.21H58.46a.85.85,0,0,1,0-1.7H103a.85.85,0,0,1,0,1.7Z"/><path class="cls-2" d="M103,87.54H71.89a.86.86,0,1,1,0-1.71H103a.86.86,0,0,1,.85.86A.85.85,0,0,1,103,87.54Z"/><path class="cls-2" d="M103,81.79H74.82a.85.85,0,0,1,0-1.7H103a.85.85,0,0,1,0,1.7Z"/><path class="cls-2" d="M103.22,75.79H82.41c-.35,0-.63-.38-.63-.85s.28-.85.63-.85h20.81c.34,0,.62.38.62.85S103.56,75.79,103.22,75.79Z"/><path class="cls-2" d="M103.11,70H80a.8.8,0,0,1-.74-.85.81.81,0,0,1,.74-.86h23.07a.8.8,0,0,1,.73.86A.79.79,0,0,1,103.11,70Z"/><path class="cls-2" d="M103.11,63.85H76.41a.86.86,0,0,1,0-1.7h26.7a.86.86,0,0,1,0,1.7Z"/></svg>