<svg id="Camada_1" data-name="Camada 1" xmlns="http://www.w3.org/2000/svg" viewBox="0 0 170 170"><defs><style>.cls-1{fill:#ff6450;}.cls-2{fill:#fff;}</style></defs><circle class="cls-1" cx="85.01" cy="84.99" r="84.98"/><path class="cls-2" d="M85.11,116.33h-5a2,2,0,1,0,0,4.09h5a2,2,0,0,0,0-4.09Z"/><path class="cls-2" d="M109.82,83.64l-.18-.15V50.69a7,7,0,0,0-7-7h-40a7,7,0,0,0-7,7v68.6a7,7,0,0,0,7,7h40a7,7,0,0,0,7-7V104l.18-.15a13.37,13.37,0,0,0,0-20.18Zm-3.18,35.65a4,4,0,0,1-4,4h-40a4,4,0,0,1-4-4v-6h48Zm0-9h-48V50.69a4,4,0,0,1,4-4h40a4,4,0,0,1,4,4V81.55l-.68-.27a13.15,13.15,0,0,0-4.64-.94l-.49,0V66.52a1.54,1.54,0,0,0-.33-.94l-5.85-7.37a1.5,1.5,0,0,0-1.18-.56H72.14a4.81,4.81,0,0,0-4.81,4.8v33.1a6,6,0,0,0,6,6H90.16l.15.2a13.33,13.33,0,0,0,15.65,4.4l.68-.27ZM88.28,97.92l.22.66H73.35a3,3,0,0,1-3-3V62.45a1.81,1.81,0,0,1,1.81-1.8h1.65v12A1.47,1.47,0,0,0,74.74,74a1.5,1.5,0,0,0,1.65-.36l4.44-4.74,4.41,4.73a1.55,1.55,0,0,0,1.65.38,1.51,1.51,0,0,0,1-1.4v-12h4.91L97.83,67V80.71l-.37.1a13.37,13.37,0,0,0-9.18,17.11ZM76.79,68.85v-8.2h8v8.18l-2.91-3.12a1.5,1.5,0,0,0-1.09-.47,1.68,1.68,0,0,0-1.1.47ZM101,104.14a10.4,10.4,0,0,1-3.36-20.25l.66-.23v8.5H95.24L101,101l5.78-8.86h-3.08v-8.5l.66.23A10.4,10.4,0,0,1,101,104.14Z"/></svg>