<svg id="Camada_1" data-name="Camada 1" xmlns="http://www.w3.org/2000/svg" viewBox="0 0 170 170"><defs><style>.cls-1{fill:#ff6450;}.cls-2{fill:#fff;}</style></defs><circle class="cls-1" cx="85" cy="84.98" r="84.98"/><path class="cls-2" d="M148.62,127.28H21.38V47.12H148.62Zm-123.24-4H144.62V51.12H25.38Z"/><path class="cls-2" d="M100.55,126.28H22.38V48.12h78.17Zm-76.17-2H98.55V50.12H24.38Z"/><path class="cls-2" d="M24.38,125.24h-2A77.21,77.21,0,0,1,99.5,48.12v2A75.21,75.21,0,0,0,24.38,125.24Z"/><path class="cls-2" d="M147.62,97.19H98.55V48.12h49.07Zm-47.07-2h45.07V50.12H100.55Z"/><path class="cls-2" d="M147.62,96.16h-2a46.1,46.1,0,0,0-46.05-46v-2A48.1,48.1,0,0,1,147.62,96.16Z"/><path class="cls-2" d="M147.62,126.28H116.53V95.19h31.09Zm-29.09-2h27.09V97.19H118.53Z"/><path class="cls-2" d="M117.54,126.28v-2a28.11,28.11,0,0,0,28.08-28.07h2A30.11,30.11,0,0,1,117.54,126.28Z"/><path class="cls-2" d="M118.53,126.28h-20v-20h20Zm-18-2h16v-16h-16Z"/><path class="cls-2" d="M117.52,126.28a19,19,0,0,1-19-19h2a17,17,0,0,0,17,17Z"/><path class="cls-2" d="M111.66,108.31H98.55V95.19h13.11Zm-11.11-2h9.11V97.19h-9.11Z"/><path class="cls-2" d="M100.55,107.3h-2a12.12,12.12,0,0,1,12.1-12.11v2A10.12,10.12,0,0,0,100.55,107.3Z"/><path class="cls-2" d="M118.53,104.06h-8.87V95.19h8.87Zm-6.87-2h4.87V97.19h-4.87Z"/><path class="cls-2" d="M118.53,103.06h-2a5.88,5.88,0,0,0-5.87-5.87v-2A7.88,7.88,0,0,1,118.53,103.06Z"/></svg>