<svg id="Camada_1" data-name="Camada 1" xmlns="http://www.w3.org/2000/svg" viewBox="0 0 170 170"><defs><style>.cls-1{fill:#ff6450;}.cls-2{fill:#fff;fill-rule:evenodd;}</style></defs><circle class="cls-1" cx="85.02" cy="84.98" r="84.98"/><path class="cls-2" d="M96.76,64.75h0c1.83.86,1.83,2.36,0,3.22L77.85,77.43c-1.72.86-3.23,0-3.23-2V57.33c0-2,1.51-2.9,3.23-2Z"/><path class="cls-2" d="M122.66,41.45H47.38a7.25,7.25,0,0,0-7.32,7.32v72.57a7.25,7.25,0,0,0,7.32,7.17h75.28a7.26,7.26,0,0,0,7.32-7.17V48.77A7.25,7.25,0,0,0,122.66,41.45Zm-78.78,46V48.77a3.47,3.47,0,0,1,3.5-3.5h75.28a3.46,3.46,0,0,1,3.49,3.5V87.44H43.88Zm72.05,3.88v3.92H109.4V91.33Zm-10.76,0v3.92H98.65V91.33Zm-10.74,0v3.92H87.9V91.33ZM83.68,91.2v4H77.15v-4Zm-10.75,0v4H66.4v-4Zm-10.75,0v4H55.65v-4Zm-10.75,0v4H44.9v-4Zm0,32.39H44.9v-4h6.53Zm10.75,0H55.65v-4h6.53Zm.19-7.78a.63.63,0,0,1-.63.52h-16a.62.62,0,0,1-.63-.52V99a.62.62,0,0,1,.63-.52h16a.63.63,0,0,1,.63.52Zm10.56,7.78H66.4v-4h6.53Zm10.75,0H77.15v-4h6.53Zm.12-7.78a.47.47,0,0,1-.47.52H67.17a.62.62,0,0,1-.63-.52V99a.62.62,0,0,1,.63-.52H83.33a.47.47,0,0,1,.47.52Zm10.63,7.78H87.9v-3.91h6.53Zm10.74,0H98.65v-3.91h6.52Zm.07-7.78a.62.62,0,0,1-.63.52h-16a.62.62,0,0,1-.63-.52V99a.62.62,0,0,1,.63-.52h16a.62.62,0,0,1,.63.52Zm10.69,7.78H109.4v-3.91h6.53Zm10.74,0h-6.52v-3.91h6.52Zm0-7.78a.47.47,0,0,1-.46.52H110a.62.62,0,0,1-.63-.52V99a.62.62,0,0,1,.63-.52h16.17a.47.47,0,0,1,.46.52Zm0-20.56h-6.52V91.33h6.52Z"/></svg>