<svg id="Camada_1" data-name="Camada 1" xmlns="http://www.w3.org/2000/svg" viewBox="0 0 170 170"><defs><style>.cls-1{fill:#ff6450;}.cls-2{fill:#fff;}</style></defs><circle class="cls-1" cx="85.01" cy="84.98" r="84.98"/><path class="cls-2" d="M139.79,44.37c-.16-.19-.33-.38-.5-.56a8.3,8.3,0,0,0-1.17-1,7.76,7.76,0,0,0-4.38-1.34H36.29a7.87,7.87,0,0,0-7.86,7.85V120.6a7.87,7.87,0,0,0,7.86,7.85h97.45a7.86,7.86,0,0,0,7.85-7.85V49.36h0A7.83,7.83,0,0,0,139.79,44.37Zm-2.22,76.23a3.84,3.84,0,0,1-3.83,3.83H36.29a3.84,3.84,0,0,1-3.84-3.83V49.36a3.84,3.84,0,0,1,3.84-3.84h97.45a3.85,3.85,0,0,1,3.76,3.07,3.94,3.94,0,0,1,.07.77V120.6Z"/><circle class="cls-2" cx="43.01" cy="53.15" r="2.68"/><circle class="cls-2" cx="53.58" cy="53.28" r="2.68"/><circle class="cls-2" cx="64.15" cy="53.41" r="2.68"/><path class="cls-2" d="M139.21,63.58H32.85c-1.32,0-2.38-.68-2.38-1.52s1.06-1.51,2.38-1.51H139.21c1.31,0,2.38.68,2.38,1.51S140.52,63.58,139.21,63.58Z"/><path class="cls-2" d="M139.21,93.94H32.85c-1.32,0-2.38-.67-2.38-1.51s1.06-1.51,2.38-1.51H139.21c1.31,0,2.38.67,2.38,1.51S140.52,93.94,139.21,93.94Z"/><path class="cls-2" d="M71.92,107.53H68.19a2,2,0,1,1,0-4h3.73a2,2,0,1,1,0,4Z"/><path class="cls-2" d="M60.46,107.53H44.08a2,2,0,0,1,0-4H60.46a2,2,0,0,1,0,4Z"/><path class="cls-2" d="M78.83,116.41H44.08a2,2,0,0,1,0-4H78.83a2,2,0,0,1,0,4Z"/><path class="cls-2" d="M125.48,116.41H90.74a2,2,0,1,1,0-4h34.74a2,2,0,1,1,0,4Z"/><path class="cls-2" d="M125.48,107.53H90.74a2,2,0,1,1,0-4h34.74a2,2,0,0,1,0,4Z"/><path class="cls-2" d="M86.59,71.14a3.24,3.24,0,1,0,3.24,3.24A3.25,3.25,0,0,0,86.59,71.14Zm1.5,3.24a1.5,1.5,0,1,1-1.5-1.5A1.5,1.5,0,0,1,88.09,74.38Z"/><path class="cls-2" d="M98.84,69.71A2.68,2.68,0,0,0,96.16,67H73.88a2.69,2.69,0,0,0-2.68,2.68V82.57a1,1,0,0,0,0,.42v1.79a2.69,2.69,0,0,0,2.68,2.68H96.16a2.68,2.68,0,0,0,2.68-2.68ZM73,83.14l6.18-5.39a1.09,1.09,0,0,1,.73-.25,1.13,1.13,0,0,1,.75.25l8.11,8H73.88a.94.94,0,0,1-.94-.94ZM97.1,76.75,97,80.24l-4.13-2.78-.18-.18h-.1a3,3,0,0,0-3.07.11l-4,2.68L81.82,76.5a3,3,0,0,0-3.86,0l-5,4.29V69.71a.94.94,0,0,1,.94-.94H96.16a.94.94,0,0,1,.94.94Zm-6.57,2.08a1.15,1.15,0,0,1,.65-.17,1.2,1.2,0,0,1,.66.17l5.26,3.55v2.4a.94.94,0,0,1-.94.94H91.34l-4.49-4.41Z"/></svg>