<svg id="Camada_1" data-name="Camada 1" xmlns="http://www.w3.org/2000/svg" viewBox="0 0 125 125"><defs><style>.cls-1{fill:#fff;}.cls-2{fill:#ff6450;}</style></defs><rect class="cls-1" width="125" height="125" rx="12.03"/><path class="cls-2" d="M85.66,81.6a2.32,2.32,0,0,1-1.21-.18l-7.93-3.51A2.34,2.34,0,0,1,75.14,76L73.36,60.21A2.34,2.34,0,1,1,78,59.69l1.63,14.48,6.7,3a2.34,2.34,0,0,1-.68,4.46Z"/><path class="cls-2" d="M75.25,56.07A2.35,2.35,0,0,1,72.66,54l-.14-1.24a2.34,2.34,0,1,1,4.66-.52l.14,1.24A2.35,2.35,0,0,1,75.25,56.07Z"/><path class="cls-2" d="M80.37,101.68a2.34,2.34,0,0,1-2.58-2.07l-.14-1.24a2.34,2.34,0,1,1,4.65-.52l.14,1.24A2.35,2.35,0,0,1,80.37,101.68Z"/><path class="cls-2" d="M55.56,80.74l-1.24.14a2.34,2.34,0,1,1-.52-4.65L55,76.09a2.34,2.34,0,1,1,.52,4.65Z"/><path class="cls-2" d="M101.17,75.62l-1.24.14a2.34,2.34,0,0,1-.53-4.65l1.24-.14a2.34,2.34,0,0,1,.53,4.65Z"/><path class="cls-2" d="M105.41,59.67a24.59,24.59,0,0,1-5,.85A27.78,27.78,0,1,1,74.22,48.33a29.56,29.56,0,0,1,3.24-.17,24.34,24.34,0,0,1-2-4.63c-.57,0-1.14.08-1.72.15a32.49,32.49,0,1,0,31.71,16Z"/><path class="cls-2" d="M97.55,47.74a1.54,1.54,0,0,1-1-.55L89,38.2a6.77,6.77,0,0,1,10.22-8.89,6.78,6.78,0,0,1,8.42,10.62l-9,7.46A1.55,1.55,0,0,1,97.55,47.74Zm-3-17.52a3.66,3.66,0,0,0-3.16,6L97.9,44l7.79-6.47A3.66,3.66,0,0,0,101,31.9l-1,.79a1.55,1.55,0,0,1-2.19-.21l-.79-.95A3.67,3.67,0,0,0,94.59,30.22Z"/><path class="cls-2" d="M6.09,86.12a1.65,1.65,0,0,1-.19-3.29l30.81-3.65a1.65,1.65,0,1,1,.39,3.27L6.29,86.1Z"/><path class="cls-2" d="M18.62,69a1.65,1.65,0,0,1-.2-3.29l21.36-2.59a1.65,1.65,0,0,1,.39,3.28L18.82,69Z"/><path class="cls-2" d="M22.47,100.82a1.65,1.65,0,0,1-.19-3.29L43.63,95a1.65,1.65,0,1,1,.4,3.27l-21.35,2.59Z"/><path class="cls-2" d="M90.32,63.63l-.3-.06a1.56,1.56,0,0,1-1.1-1.28c-.36-2.72-.79-5.71-1-7a21.57,21.57,0,0,1-6.43-5.61A21.8,21.8,0,1,1,96.05,58l-.23.27-1.7,2-2.48,2.83A1.56,1.56,0,0,1,90.32,63.63ZM90,52.9l0,0c.74.39.82.89,1,2.38.11.66.24,1.56.4,2.7,0,.16,0,.33.07.49,1.23-1.41,2.24-2.58,2.51-2.92a1.56,1.56,0,0,1,1.43-.77l.17,0A18.69,18.69,0,0,0,113.56,25h0A18.69,18.69,0,1,0,90,52.9Z"/></svg>