<svg id="Camada_1" data-name="Camada 1" xmlns="http://www.w3.org/2000/svg" viewBox="0 0 125 125"><defs><style>.cls-1{fill:#ff6450;}</style></defs><path class="cls-1" d="M111.79,125H13.21A13.23,13.23,0,0,1,0,111.79V13.21A13.23,13.23,0,0,1,13.21,0h98.58A13.23,13.23,0,0,1,125,13.21v98.58A13.23,13.23,0,0,1,111.79,125ZM13.21,2.93A10.29,10.29,0,0,0,2.93,13.21v98.58a10.29,10.29,0,0,0,10.28,10.28h98.58a10.29,10.29,0,0,0,10.28-10.28V13.21A10.29,10.29,0,0,0,111.79,2.93Z"/><path class="cls-1" d="M64.76,68.44c-.89,0-1.81-.66-2.74-2a21.06,21.06,0,0,1-3.37-10.08c0-2,.46-3.14,1.53-3.49s2.18.27,3.32,1.88a18.82,18.82,0,0,1,2.32,4.82,19.06,19.06,0,0,1,1,5.25c.06,2-.46,3.15-1.52,3.5A1.65,1.65,0,0,1,64.76,68.44ZM60.91,55.07c-.22.75-.18,2.87.83,5.88s2.25,4.74,2.87,5.21c.21-.75.17-2.87-.84-5.88h0C62.77,57.26,61.52,55.54,60.91,55.07Z"/><path class="cls-1" d="M64.48,68.38a1.15,1.15,0,0,1-.26,0h0c-.08,0-7.42-1.83-13.77-.83a3.16,3.16,0,0,1-1.92-5.93c2.33-1.18,8.06-4.36,11-8.33a1.08,1.08,0,0,1,1.74,1.28c-3.06,4.18-8.66,7.42-11.72,9a1,1,0,0,0-.5,1.17,1,1,0,0,0,1.11.69c6.78-1.06,14.31.8,14.62.87a1.08,1.08,0,0,1-.26,2.13Z"/><path class="cls-1" d="M56.46,72.72a1,1,0,0,1-.33,0c-4.23-1.36-5.79-5.82-5.86-6a1.08,1.08,0,0,1,2-.7c0,.06,1.3,3.63,4.47,4.65a1.08,1.08,0,0,1-.33,2.11Z"/><path class="cls-1" d="M70.67,58.69a1.08,1.08,0,0,1-.35-2.1l3.5-1.21a1.09,1.09,0,0,1,1.37.67,1.08,1.08,0,0,1-.67,1.37L71,58.63A.91.91,0,0,1,70.67,58.69Z"/><path class="cls-1" d="M67.65,54a1,1,0,0,1-.6-.19,1.08,1.08,0,0,1-.29-1.5l2.09-3.06a1.08,1.08,0,1,1,1.78,1.22l-2.08,3.06A1.1,1.1,0,0,1,67.65,54Z"/><path class="cls-1" d="M74.15,65.14H74l-3.66-.57a1.08,1.08,0,0,1,.33-2.13l3.66.57a1.08,1.08,0,0,1-.17,2.14Z"/><path class="cls-1" d="M14.33,53.51A4.47,4.47,0,1,1,18.8,49,4.47,4.47,0,0,1,14.33,53.51Zm0-6.36A1.89,1.89,0,1,0,16.22,49,1.88,1.88,0,0,0,14.33,47.15Z"/><path class="cls-1" d="M31.86,45.43A4.47,4.47,0,1,1,36.33,41,4.47,4.47,0,0,1,31.86,45.43Zm0-6.36A1.89,1.89,0,1,0,33.75,41,1.89,1.89,0,0,0,31.86,39.07Z"/><path class="cls-1" d="M27.3,57.8a1.27,1.27,0,0,1-.62-.16L16.37,52a1.29,1.29,0,1,1,1.24-2.26l8.92,4.91,3.32-10.86a1.29,1.29,0,1,1,2.47.75L28.54,56.89a1.33,1.33,0,0,1-.75.82A1.37,1.37,0,0,1,27.3,57.8Z"/><path class="cls-1" d="M40,69.15a1.26,1.26,0,0,1-.85-.33L26.45,57.48a1.29,1.29,0,1,1,1.71-1.93L40.88,66.9A1.29,1.29,0,0,1,41,68.72,1.32,1.32,0,0,1,40,69.15Z"/><path class="cls-1" d="M65.76,108.56a4.47,4.47,0,1,1,4.47-4.47A4.48,4.48,0,0,1,65.76,108.56Zm0-6.36a1.89,1.89,0,1,0,1.89,1.89A1.89,1.89,0,0,0,65.76,102.2Z"/><path class="cls-1" d="M65,102.2a1.29,1.29,0,0,1-1.27-1.07l-2.81-16A1.31,1.31,0,0,1,62,83.65a1.29,1.29,0,0,1,1.49,1l2.81,16a1.29,1.29,0,0,1-1.05,1.49Z"/><path class="cls-1" d="M23.69,100.57a4.47,4.47,0,1,1,4.47-4.47A4.47,4.47,0,0,1,23.69,100.57Zm0-6.36a1.89,1.89,0,1,0,1.9,1.89A1.89,1.89,0,0,0,23.69,94.21Z"/><path class="cls-1" d="M36.41,117.24a4.47,4.47,0,1,1,4.47-4.47A4.47,4.47,0,0,1,36.41,117.24Zm0-6.36a1.89,1.89,0,1,0,1.89,1.89A1.89,1.89,0,0,0,36.41,110.88Z"/><path class="cls-1" d="M37.19,110.88a1.12,1.12,0,0,1-.32,0,1.29,1.29,0,0,1-.93-1.57l3.82-14.81-12.88,1.8a1.29,1.29,0,0,1-.36-2.56l14.79-2.06a1.28,1.28,0,0,1,1.42,1.6l-4.29,16.67A1.3,1.3,0,0,1,37.19,110.88Z"/><path class="cls-1" d="M41.48,94.21A1.29,1.29,0,0,1,40.55,92L51.47,80.6a1.29,1.29,0,1,1,1.87,1.78L42.42,93.81A1.34,1.34,0,0,1,41.48,94.21Z"/><path class="cls-1" d="M88.59,116.4a4.47,4.47,0,1,1,4.47-4.47A4.47,4.47,0,0,1,88.59,116.4Zm0-6.36a1.89,1.89,0,1,0,1.89,1.89A1.89,1.89,0,0,0,88.59,110Z"/><path class="cls-1" d="M101.82,104.88a4.47,4.47,0,1,1,4.47-4.47A4.47,4.47,0,0,1,101.82,104.88Zm0-6.36a1.89,1.89,0,1,0,1.89,1.89A1.89,1.89,0,0,0,101.82,98.52Z"/><path class="cls-1" d="M88,110A1.28,1.28,0,0,1,86.72,109L84.14,94.36a1.28,1.28,0,0,1,1.73-1.42l13.41,5.15a1.29,1.29,0,0,1-.93,2.41L87.07,96.16l2.18,12.36a1.29,1.29,0,0,1-1,1.5Z"/><path class="cls-1" d="M85.41,95.43a1.28,1.28,0,0,1-.88-.34L71.81,83.4a1.29,1.29,0,0,1,1.75-1.9L86.28,93.19a1.29,1.29,0,0,1-.87,2.24Z"/><path class="cls-1" d="M101.82,24.43a4.47,4.47,0,1,1-4.47,4.47A4.47,4.47,0,0,1,101.82,24.43Zm0,6.36a1.89,1.89,0,1,0-1.89-1.89A1.89,1.89,0,0,0,101.82,30.79Z"/><path class="cls-1" d="M89.1,7.76a4.47,4.47,0,1,1-4.47,4.47A4.47,4.47,0,0,1,89.1,7.76Zm0,6.36a1.89,1.89,0,1,0-1.89-1.89A1.89,1.89,0,0,0,89.1,14.12Z"/><path class="cls-1" d="M88.33,14.12a1.22,1.22,0,0,1,.32,0,1.3,1.3,0,0,1,.93,1.57L85.76,30.54l12.88-1.8A1.29,1.29,0,0,1,99,31.3L84.21,33.36a1.29,1.29,0,0,1-1.43-1.6l4.3-16.67A1.29,1.29,0,0,1,88.33,14.12Z"/><path class="cls-1" d="M84,30.79A1.29,1.29,0,0,1,85,33L74,44.4a1.28,1.28,0,0,1-1.82.05,1.3,1.3,0,0,1,0-1.83L83.1,31.19A1.3,1.3,0,0,1,84,30.79Z"/><path class="cls-1" d="M36.93,8.6a4.47,4.47,0,1,1-4.47,4.47A4.48,4.48,0,0,1,36.93,8.6Zm0,6.36A1.89,1.89,0,1,0,35,13.07,1.89,1.89,0,0,0,36.93,15Z"/><path class="cls-1" d="M23.69,20.12a4.47,4.47,0,1,1-4.46,4.47A4.47,4.47,0,0,1,23.69,20.12Zm0,6.36a1.89,1.89,0,1,0-1.89-1.89A1.9,1.9,0,0,0,23.69,26.48Z"/><path class="cls-1" d="M37.53,15A1.29,1.29,0,0,1,38.8,16l2.58,14.61a1.28,1.28,0,0,1-1.73,1.42L26.24,26.91a1.29,1.29,0,0,1,.93-2.41l11.27,4.34L36.26,16.48A1.3,1.3,0,0,1,37.31,15Z"/><path class="cls-1" d="M40.11,29.57a1.28,1.28,0,0,1,.87.34L53.7,41.6A1.29,1.29,0,1,1,52,43.5L39.24,31.81A1.28,1.28,0,0,1,39.16,30,1.27,1.27,0,0,1,40.11,29.57Z"/><path class="cls-1" d="M110.67,72.76a4.47,4.47,0,1,1,4.47-4.47A4.47,4.47,0,0,1,110.67,72.76Zm0-6.36a1.9,1.9,0,1,0,1.89,1.89A1.89,1.89,0,0,0,110.67,66.4Z"/><path class="cls-1" d="M107.49,69.67h0L84.77,69a1.29,1.29,0,0,1,.07-2.58l22.69.69a1.29,1.29,0,0,1,0,2.58Z"/><path class="cls-1" d="M26.8,77.89a4.47,4.47,0,1,1,4.47-4.47A4.47,4.47,0,0,1,26.8,77.89Zm0-6.36a1.89,1.89,0,1,0,1.89,1.89A1.89,1.89,0,0,0,26.8,71.53Z"/><path class="cls-1" d="M46,78.58a1.07,1.07,0,0,1-.25,0l-16-3.09a1.29,1.29,0,1,1,.49-2.53l16,3.09A1.29,1.29,0,0,1,46,78.58Z"/><path class="cls-1" d="M99.13,80.22a4.47,4.47,0,1,1-6.32,0A4.48,4.48,0,0,1,99.13,80.22Zm-4.47,4.52a1.89,1.89,0,0,0,2.66-2.69,1.89,1.89,0,1,0-2.66,2.69Z"/><path class="cls-1" d="M86,66.27a1.46,1.46,0,0,1,.16.19l9.21,13.43a1.29,1.29,0,1,1-2.13,1.45L84,67.92a1.29,1.29,0,0,1,2-1.65Z"/><path class="cls-1" d="M97.31,53.83a4.47,4.47,0,1,1-.26,6.31A4.46,4.46,0,0,1,97.31,53.83Zm4.31,4.68A1.89,1.89,0,1,0,99,58.4,1.9,1.9,0,0,0,101.62,58.51Z"/><path class="cls-1" d="M82.75,66.32a1,1,0,0,1,.2-.15L96.8,57.61a1.29,1.29,0,1,1,1.35,2.19L84.3,68.36a1.29,1.29,0,0,1-1.55-2Z"/><path class="cls-1" d="M62.16,86A23.59,23.59,0,1,1,85.75,62.41,23.62,23.62,0,0,1,62.16,86Zm0-43.18A19.59,19.59,0,1,0,81.75,62.41,19.62,19.62,0,0,0,62.16,42.82Z"/><path class="cls-1" d="M63.38,17.11a4.47,4.47,0,1,1-4.47,4.47A4.47,4.47,0,0,1,63.38,17.11Zm0,6.36a1.89,1.89,0,1,0-1.89-1.89A1.89,1.89,0,0,0,63.38,23.47Z"/><path class="cls-1" d="M64.16,23.47a1.29,1.29,0,0,1,1.27,1.07l2.8,16a1.28,1.28,0,0,1-1,1.49,1.29,1.29,0,0,1-1.5-1l-2.8-16a1.28,1.28,0,0,1,1-1.49Z"/></svg>