<svg id="Camada_1" data-name="Camada 1" xmlns="http://www.w3.org/2000/svg" viewBox="0 0 125 125"><defs><style>.cls-1{fill:#fff;}.cls-2{fill:#ff6450;}</style></defs><rect class="cls-1" width="125" height="125" rx="12.03"/><path class="cls-2" d="M68.55,47.68a1.11,1.11,0,0,1-.38-.22,1.21,1.21,0,0,1-.36-1.32l1.63-4.67L69,41.32A16.52,16.52,0,1,1,79.9,10.14L93.8,15A16.52,16.52,0,0,1,82.89,46.18l-6.45-2.26-6.91,3.69A1.24,1.24,0,0,1,68.55,47.68ZM79.09,12.43A14.08,14.08,0,0,0,69.79,39l1.6.56a1.21,1.21,0,0,1,.74,1.55l-1,2.87,4.64-2.47a1.22,1.22,0,0,1,1-.08l7,2.44A14.09,14.09,0,0,0,93,17.29Z"/><circle class="cls-2" cx="74.22" cy="25.13" r="1.78"/><circle class="cls-2" cx="81.55" cy="27.7" r="1.78"/><circle class="cls-2" cx="88.89" cy="30.27" r="1.78"/><path class="cls-2" d="M73.34,47.41V84.54H75a1.69,1.69,0,0,1,1.69,1.69V46.45l-.94-.33Z"/><path class="cls-2" d="M75,87.92H73.34v1.41a5.9,5.9,0,0,1-5.9,5.9h0l-5.56.11a1.69,1.69,0,0,0,0,3.37h0l5.55-.11a9.28,9.28,0,0,0,9.25-9.27v-3.1A1.69,1.69,0,0,1,75,87.92Z"/><path class="cls-2" d="M43.11,27.05a9.27,9.27,0,0,0-9.27,9.26V78.6a1.69,1.69,0,0,0,3.37,0V36.31a5.9,5.9,0,0,1,5.9-5.89H55a19.4,19.4,0,0,1-.7-3.37Z"/><path class="cls-2" d="M58.28,84.54a1.69,1.69,0,0,0,0,3.38H73.34V84.54Z"/><path class="cls-2" d="M75,84.54H73.34v3.38H75a1.69,1.69,0,0,0,0-3.38Z"/><path class="cls-2" d="M38.06,115.79a1.69,1.69,0,0,1-1.69-1.69v-1.44A4.56,4.56,0,0,0,35,109.41l-4-4a16.51,16.51,0,0,1-4.82-12.07l-.07-24.72v-.05a14.76,14.76,0,0,1,3-8.49l5.07-6.75a1.69,1.69,0,0,1,2.69,2L31.8,62.11a11.43,11.43,0,0,0-2.29,6.53l.07,24.72v0A13.15,13.15,0,0,0,33.41,103l4,4a7.91,7.91,0,0,1,2.33,5.63v1.44A1.68,1.68,0,0,1,38.06,115.79Z"/><path class="cls-2" d="M59,115.79a1.69,1.69,0,0,1-1.69-1.69v-7.59a11.64,11.64,0,0,0-1.78-6.2l-4.26-5.93-.06-.08a5.45,5.45,0,0,1-.7-4.11L52.93,79.4a1.9,1.9,0,0,0-3.57-1.22l-4,8.57A4.13,4.13,0,0,1,39,88.23a1.6,1.6,0,0,1-.41-.49l-4.57-8.22a1.69,1.69,0,1,1,3-1.64l4.36,7.86a.69.69,0,0,0,.46,0,.76.76,0,0,0,.53-.42l3.94-8.58a5.27,5.27,0,0,1,9.93,3.38L53.75,90.94A2.08,2.08,0,0,0,54,92.46l4.26,5.93.06.08a15,15,0,0,1,2.32,8v7.59A1.68,1.68,0,0,1,59,115.79Z"/><path class="cls-2" d="M55.36,62.53a8.21,8.21,0,1,1,8.2-8.2A8.21,8.21,0,0,1,55.36,62.53Zm0-13a4.84,4.84,0,1,0,4.83,4.84A4.84,4.84,0,0,0,55.36,49.49Z"/><path class="cls-2" d="M45.25,72.64A1.69,1.69,0,0,1,43.56,71V68.23A10.79,10.79,0,0,1,50.49,58.1a1.68,1.68,0,0,1,1.22,3.14,7.46,7.46,0,0,0-4.78,7V71A1.68,1.68,0,0,1,45.25,72.64Z"/><path class="cls-2" d="M65.25,82.08a1.69,1.69,0,0,1-1.69-1.68V68.23A7.48,7.48,0,0,0,59,61.31a1.69,1.69,0,0,1,1.3-3.11,10.83,10.83,0,0,1,6.67,10V80.4A1.68,1.68,0,0,1,65.25,82.08Z"/><rect class="cls-2" x="48.56" y="34.35" width="13.61" height="2.74" rx="1.37"/></svg>