<svg id="Camada_1" data-name="Camada 1" xmlns="http://www.w3.org/2000/svg" viewBox="0 0 91 91"><defs><style>.cls-1{fill:#ff6450;}.cls-2{fill:#2a2a2a;}</style></defs><path class="cls-1" d="M45.5,91A45.48,45.48,0,1,1,91,45.48,45.54,45.54,0,0,1,45.5,91Zm0-88.06A42.58,42.58,0,1,0,88.08,45.48,42.63,42.63,0,0,0,45.5,2.9Z"/><path class="cls-1" d="M60.61,54a.69.69,0,0,1-.2,0,.75.75,0,0,1-.54-.93l3.34-12.55a.52.52,0,0,0-.07-.46A.24.24,0,0,0,63,40H49.72c-.07,0-.18.08-.23.24l-3.13,11a.75.75,0,0,1-.72.55l-4.91.07h0a.77.77,0,0,1,0-1.54l4.34,0,3-10.41a1.8,1.8,0,0,1,1.7-1.36H63a1.74,1.74,0,0,1,1.37.7,2,2,0,0,1,.34,1.79L61.35,53.46A.77.77,0,0,1,60.61,54Z"/><path class="cls-2" d="M64.44,54.06H25.49a.77.77,0,1,1,0-1.54h39a.77.77,0,0,1,0,1.54Z"/><path class="cls-2" d="M43.76,39.93A6.89,6.89,0,1,1,50.64,33,6.9,6.9,0,0,1,43.76,39.93Zm0-12.24A5.36,5.36,0,1,0,49.11,33,5.36,5.36,0,0,0,43.76,27.69Z"/><path class="cls-2" d="M40.79,53.51a.77.77,0,0,1-.77-.77,1.88,1.88,0,0,0-1.42-2h0l-4.9-.89a.77.77,0,0,1,.27-1.51l4.9.89a3.42,3.42,0,0,1,2.72,3.48A.77.77,0,0,1,40.79,53.51Z"/><path class="cls-2" d="M29.34,53.71a.76.76,0,0,1-.77-.77V51.76a11.67,11.67,0,0,1,1.8-6.29l2.46-3.78a8.65,8.65,0,0,1,4.54-3.59l1.87-.86a.77.77,0,1,1,.64,1.39L38,39.51l-.1,0a7.07,7.07,0,0,0-3.76,3L31.66,46.3a10.15,10.15,0,0,0-1.55,5.46v1.18A.77.77,0,0,1,29.34,53.71Z"/><path class="cls-2" d="M35.35,49.59a.74.74,0,0,1-.47-.16.76.76,0,0,1-.14-1.07l2.45-3.21A.76.76,0,0,1,38.26,45a.76.76,0,0,1,.15,1.07L36,49.29A.79.79,0,0,1,35.35,49.59Z"/><path class="cls-2" d="M33.54,33a4.94,4.94,0,0,1-1-.1c-3.38-.66-5.1-4.43-5.17-4.59a.76.76,0,0,1,1.16-.92c.13.09,1.75,1.13,5.06-.28a4.46,4.46,0,0,1,3.83-.14,4,4,0,0,1,2,2.51.74.74,0,0,1-.21.73C37.25,32,35.36,33,33.54,33ZM29.8,29.31a5.43,5.43,0,0,0,3,2.06c1.5.29,3.15-.37,4.91-1.95a2.34,2.34,0,0,0-1-1.11,3,3,0,0,0-2.53.18A8.94,8.94,0,0,1,29.8,29.31Z"/><path class="cls-2" d="M38.5,36.93a.76.76,0,0,1-.77-.74.78.78,0,0,1,.74-.79,9.68,9.68,0,0,0,3.22-.8,7.11,7.11,0,0,0,4.19-4.82.77.77,0,1,1,1.48.4A8.66,8.66,0,0,1,42.26,36a11,11,0,0,1-3.74.91Z"/><path class="cls-2" d="M49.55,35.16a5.14,5.14,0,0,1-4.41-2.91.77.77,0,1,1,1.39-.65,3.58,3.58,0,0,0,3.17,2,.77.77,0,1,1,.06,1.53Z"/><path class="cls-1" d="M70,37.56c-2.71-19.9-22.28-21-22.48-21-23.63.46-26.34,20.82-26.37,21l-1.88-.23c0-.22,3-22.22,28.28-22.7.28,0,21.41,1.24,24.33,22.69Z"/><rect class="cls-1" x="17.81" y="35.36" width="4.41" height="4.41"/><rect class="cls-1" x="68.78" y="35.23" width="4.41" height="4.41"/><rect class="cls-1" x="44.66" y="10.51" width="4.41" height="4.41"/><rect class="cls-1" x="19.07" y="22.46" width="1.9" height="15.92"/><rect class="cls-1" x="70.03" y="22.32" width="1.9" height="15.92"/><path class="cls-1" d="M22.22,22.05a2.21,2.21,0,1,1-2.2-2.2A2.21,2.21,0,0,1,22.22,22.05Z"/><path class="cls-1" d="M73.19,22.46A2.21,2.21,0,1,1,71,20.26,2.21,2.21,0,0,1,73.19,22.46Z"/><rect class="cls-1" x="34.38" y="11.77" width="25.19" height="1.9"/><path class="cls-1" d="M36.59,12.72a2.21,2.21,0,1,1-2.21-2.21A2.21,2.21,0,0,1,36.59,12.72Z"/><path class="cls-1" d="M61.78,12.72a2.21,2.21,0,1,1-2.21-2.21A2.21,2.21,0,0,1,61.78,12.72Z"/><path class="cls-2" d="M45.45,64.75a26.44,26.44,0,0,1-25.81-21l2.12-.43a24.19,24.19,0,0,0,47.47-.53l2.13.4A26.33,26.33,0,0,1,45.45,64.75Z"/><rect class="cls-2" x="35.94" y="68.06" width="19.12" height="2.17"/><rect class="cls-2" x="38.55" y="73.05" width="13.9" height="2.17"/><rect class="cls-2" x="42.03" y="78.28" width="6.95" height="2.17"/></svg>