<svg id="Camada_1" data-name="Camada 1" xmlns="http://www.w3.org/2000/svg" viewBox="0 0 91 91"><defs><style>.cls-1{fill:#ff6450;}.cls-2{fill:#2a2a2a;}</style></defs><path class="cls-1" d="M45.52,91A45.48,45.48,0,1,1,91,45.48,45.54,45.54,0,0,1,45.52,91Zm0-88.06A42.58,42.58,0,1,0,88.1,45.48,42.62,42.62,0,0,0,45.52,2.9Z"/><path class="cls-2" d="M65.58,69.48H59.85a1,1,0,0,1,0-2h5.73a1.93,1.93,0,0,0,1.92-1.93V61.19a1,1,0,1,1,2,0v4.35A4,4,0,0,1,65.58,69.48Z"/><path class="cls-2" d="M41.11,69.48H16.64a4,4,0,0,1-3.94-3.94V29.77a4,4,0,0,1,3.94-3.95H65.58a4,4,0,0,1,3.94,3.95V40.4a1,1,0,1,1-2,0V29.77a1.92,1.92,0,0,0-1.92-1.93H16.64a1.93,1.93,0,0,0-1.93,1.93V65.54a1.94,1.94,0,0,0,1.93,1.93H41.11a1,1,0,1,1,0,2Z"/><path class="cls-2" d="M72.43,62.76a1,1,0,1,1,0-2,1.92,1.92,0,0,0,1.92-1.93V54.31a1,1,0,0,1,2,0v4.51A3.94,3.94,0,0,1,72.43,62.76Z"/><path class="cls-2" d="M75.36,37.72a1,1,0,0,1-1-1V23.05a1.93,1.93,0,0,0-1.92-1.93H23.49a1.94,1.94,0,0,0-1.93,1.93,1,1,0,1,1-2,0,4,4,0,0,1,3.94-3.94H72.43a4,4,0,0,1,3.94,3.94V36.71A1,1,0,0,1,75.36,37.72Z"/><circle class="cls-1" cx="20.02" cy="31.67" r="1.34"/><circle class="cls-1" cx="25.32" cy="31.73" r="1.34"/><circle class="cls-1" cx="30.63" cy="31.8" r="1.34"/><path class="cls-2" d="M63.61,36.91h-45a1,1,0,0,1,0-2h45a1,1,0,0,1,0,2Z"/><path class="cls-1" d="M46.14,73.77a1,1,0,0,1-1-1.33L47.34,66a1,1,0,0,1,.24-.4L72,41.12a4.06,4.06,0,1,1,5.74,5.74L53.32,71.31a1,1,0,0,1-.39.25l-6.47,2.15A.91.91,0,0,1,46.14,73.77Zm3-6.94-1.45,4.34,4.34-1.45L76.35,45.43a2,2,0,1,0-2.89-2.89Zm3.43,3.77Z"/><path class="cls-1" d="M73.71,50.51a1,1,0,0,1-.72-.29L70.79,48a1,1,0,1,1,1.42-1.42l2.21,2.2a1,1,0,0,1,0,1.43A1,1,0,0,1,73.71,50.51Z"/><path class="cls-2" d="M61.12,45.84H53.88a1,1,0,0,1,0-2h7.24a1,1,0,1,1,0,2Z"/><path class="cls-2" d="M50.11,45.84H38.79a1,1,0,1,1,0-2H50.11a1,1,0,0,1,0,2Z"/><path class="cls-2" d="M34.54,45.84H32.66a1,1,0,1,1,0-2h1.88a1,1,0,0,1,0,2Z"/><path class="cls-2" d="M28.78,45.84H20.56a1,1,0,1,1,0-2h8.22a1,1,0,0,1,0,2Z"/><path class="cls-2" d="M53.47,52.82H47.18a1,1,0,1,1,0-2h6.29a1,1,0,0,1,0,2Z"/><path class="cls-2" d="M43.59,52.82h-23a1,1,0,1,1,0-2h23a1,1,0,1,1,0,2Z"/><path class="cls-2" d="M33.05,59.81H20.56a1,1,0,1,1,0-2H33.05a1,1,0,1,1,0,2Z"/></svg>