<svg id="Camada_1" data-name="Camada 1" xmlns="http://www.w3.org/2000/svg" viewBox="0 0 91 91"><defs><style>.cls-1{fill:#ff6450;}.cls-2{fill:#2a2a2a;}</style></defs><path class="cls-1" d="M45.52,91A45.48,45.48,0,1,1,91,45.5,45.54,45.54,0,0,1,45.52,91Zm0-88.06A42.58,42.58,0,1,0,88.1,45.5,42.62,42.62,0,0,0,45.52,2.92Z"/><path class="cls-2" d="M52.75,65.85H37.42a9.94,9.94,0,0,1-9.93-9.93V50.11a9.94,9.94,0,0,1,9.93-9.93H52.75a9.94,9.94,0,0,1,9.93,9.93v5.81A9.94,9.94,0,0,1,52.75,65.85ZM37.42,41.71A8.4,8.4,0,0,0,29,50.11v5.81a8.4,8.4,0,0,0,8.39,8.4H52.75a8.41,8.41,0,0,0,8.4-8.4V50.11a8.41,8.41,0,0,0-8.4-8.4Z"/><path class="cls-1" d="M42.33,60.26A2.74,2.74,0,0,1,41,59.92a2.77,2.77,0,0,1-1.47-2.46V48.57a2.8,2.8,0,0,1,4.34-2.33l6.72,4.44a2.79,2.79,0,0,1,0,4.67l-6.72,4.44A2.81,2.81,0,0,1,42.33,60.26Zm0-12.95a1.27,1.27,0,0,0-.6.15,1.25,1.25,0,0,0-.66,1.11v8.89a1.26,1.26,0,0,0,2,1l6.72-4.45a1.24,1.24,0,0,0,0-2.09L43,47.52A1.24,1.24,0,0,0,42.33,47.31Z"/><path class="cls-1" d="M57.47,32.75a1,1,0,0,1-1-1v-.65a1,1,0,1,1,1.94,0v.65A1,1,0,0,1,57.47,32.75Z"/><path class="cls-1" d="M57.47,38.5a1,1,0,0,1-1-1v-.65a1,1,0,0,1,1.94,0v.65A1,1,0,0,1,57.47,38.5Z"/><path class="cls-1" d="M54.92,35.3h-.65a1,1,0,1,1,0-1.94h.65a1,1,0,0,1,0,1.94Z"/><path class="cls-1" d="M60.68,35.3H60a1,1,0,0,1,0-1.94h.65a1,1,0,0,1,0,1.94Z"/><path class="cls-1" d="M63.52,27a.6.6,0,0,1-.6-.6V26a.6.6,0,0,1,1.2,0v.4A.6.6,0,0,1,63.52,27Z"/><path class="cls-1" d="M63.52,30.51a.6.6,0,0,1-.6-.6v-.4a.6.6,0,0,1,1.2,0v.4A.6.6,0,0,1,63.52,30.51Z"/><path class="cls-1" d="M62,28.53h-.4a.59.59,0,0,1-.6-.59.6.6,0,0,1,.6-.6H62a.6.6,0,0,1,.6.6A.59.59,0,0,1,62,28.53Z"/><path class="cls-1" d="M65.5,28.53h-.41a.58.58,0,0,1-.59-.59.59.59,0,0,1,.59-.6h.41a.59.59,0,0,1,.59.6A.58.58,0,0,1,65.5,28.53Z"/><path class="cls-2" d="M71.85,67.31H70.59V35.83a15,15,0,0,0-3.78-10.61c-4.16-4.63-11.32-7-21.3-7s-17.14,2.37-21.3,7a14.93,14.93,0,0,0-3.77,10.61V67.31H19.19a9.27,9.27,0,0,1-6.59-2.76,9.52,9.52,0,0,1-2.75-6.72V41.94a9.51,9.51,0,0,1,1.81-5.63,9.64,9.64,0,0,1,3.79-3.2A15.81,15.81,0,0,1,20,23.68c5.1-5.27,13.65-8,25.44-8h.17c11.78,0,20.34,2.72,25.44,8a15.93,15.93,0,0,1,4.55,9.43,9.63,9.63,0,0,1,3.77,3.18v0a9.52,9.52,0,0,1,1.82,5.63V57.83a9.53,9.53,0,0,1-2.76,6.72A9.27,9.27,0,0,1,71.85,67.31ZM73.12,36V64.66a6.92,6.92,0,0,0,3.54-1.9,7,7,0,0,0,2-4.93V41.94a7.07,7.07,0,0,0-1.36-4.17A6.85,6.85,0,0,0,74,35.19l-.81-.28C73.16,35.48,73.13,35.87,73.12,36ZM17.89,34.91l-.82.28a6.88,6.88,0,0,0-3.35,2.59,7,7,0,0,0-1.34,4.16V57.83a7,7,0,0,0,2,4.93,6.85,6.85,0,0,0,3.53,1.9V36C17.91,35.87,17.88,35.47,17.89,34.91Zm55-2.94a16.9,16.9,0,0,1,.25,1.88A8.85,8.85,0,0,0,72.86,32ZM18.18,32a10.25,10.25,0,0,0-.25,1.87C18,33.3,18.05,32.67,18.18,32Z"/></svg>